# xmcd CD database file
#
# Track frame offsets:
#	150
#	10025
#	89491
#	168960
#	248426
#
# Disc length: 4182 seconds
#
# Revision: 0
# Processed by: cddbd v1.5.1PL0 Copyright (c) Steve Scherf et al.
# Submitted via: CDex 1.50
#
DISCID=2b105405
DTITLE=Agniman - Reiki Flowers vol. 2
DYEAR=2002
DGENRE=New Age
TTITLE0=Intro 2
TTITLE1=Althea
TTITLE2=Dalhia
TTITLE3=Helicanthus
TTITLE4=Iris
EXTD=YEAR: 2002
EXTT0=
EXTT1=
EXTT2=
EXTT3=
EXTT4=
PLAYORDER=
